<svg width="140" height="62" viewBox="0 0 140 62" fill="none" xmlns="http://www.w3.org/2000/svg">
<path fill-rule="evenodd" clip-rule="evenodd" d="M5 41C2.23859 41 0 43.2386 0 46V57C0 59.7614 2.23859 62 5 62H135C137.761 62 140 59.7614 140 57V46C140 43.2386 137.761 41 135 41H5ZM14.0336 56.84C14.8549 57.0746 15.7136 57.192 16.6096 57.192C17.6762 57.192 18.5562 57.032 19.2496 56.712C19.9536 56.392 20.4816 55.9706 20.8336 55.448C21.1856 54.9254 21.3616 54.3493 21.3616 53.72C21.3616 53.1334 21.2389 52.648 20.9936 52.264C20.7589 51.88 20.4496 51.5707 20.0656 51.336C19.6815 51.1013 19.2549 50.9147 18.7856 50.776C18.3269 50.6373 17.8629 50.5146 17.3936 50.408C16.9349 50.3013 16.5135 50.1946 16.1296 50.088C15.7456 49.9813 15.4362 49.8427 15.2016 49.672C14.9669 49.4907 14.8495 49.256 14.8495 48.968C14.8495 48.7227 14.9189 48.5093 15.0576 48.328C15.1962 48.136 15.4256 47.9813 15.7456 47.864C16.0656 47.7466 16.4762 47.688 16.9776 47.688C17.4789 47.688 17.9909 47.7627 18.5135 47.912C19.0362 48.0507 19.5589 48.2693 20.0816 48.568L20.8816 46.6C20.3589 46.2693 19.7562 46.024 19.0735 45.864C18.3909 45.6934 17.6976 45.608 16.9936 45.608C15.9376 45.608 15.0576 45.768 14.3536 46.088C13.6602 46.3973 13.1376 46.8187 12.7856 47.352C12.4442 47.8747 12.2736 48.456 12.2736 49.096C12.2736 49.6934 12.3909 50.184 12.6255 50.568C12.8709 50.952 13.1856 51.2614 13.5695 51.496C13.9536 51.7307 14.3749 51.9227 14.8336 52.072C15.3029 52.2213 15.7669 52.3493 16.2256 52.456C16.6949 52.552 17.1216 52.6587 17.5056 52.776C17.8896 52.8827 18.1989 53.0267 18.4336 53.208C18.6682 53.3787 18.7856 53.6133 18.7856 53.912C18.7856 54.1467 18.7109 54.3547 18.5616 54.536C18.4122 54.7173 18.1776 54.8613 17.8576 54.968C17.5482 55.064 17.1376 55.112 16.6255 55.112C15.9536 55.112 15.2869 55.0053 14.6255 54.792C13.9749 54.568 13.4096 54.2853 12.9296 53.944L12.0496 55.896C12.5509 56.28 13.2122 56.5947 14.0336 56.84ZM24.3807 55.864C25.2767 56.7493 26.5193 57.192 28.1087 57.192C29.698 57.192 30.9407 56.7493 31.8367 55.864C32.7327 54.9786 33.1807 53.7147 33.1807 52.072V45.8H30.6207V51.976C30.6207 53.0427 30.402 53.8107 29.9647 54.28C29.5273 54.7493 28.914 54.984 28.1247 54.984C27.3354 54.984 26.722 54.7493 26.2847 54.28C25.8474 53.8107 25.6287 53.0427 25.6287 51.976V45.8H23.0367V52.072C23.0367 53.7147 23.4847 54.9786 24.3807 55.864ZM35.7421 45.8V57H38.3341V53.912H40.5901C41.5927 53.912 42.4567 53.752 43.1821 53.432C43.9074 53.1013 44.4674 52.632 44.8621 52.024C45.2567 51.416 45.4541 50.696 45.4541 49.864C45.4541 49.0214 45.2567 48.296 44.8621 47.688C44.4674 47.08 43.9074 46.616 43.1821 46.296C42.4567 45.9653 41.5927 45.8 40.5901 45.8H35.7421ZM38.3341 51.8H40.4461C41.2461 51.8 41.8434 51.6293 42.2381 51.288C42.6327 50.9467 42.8301 50.472 42.8301 49.864C42.8301 49.2454 42.6327 48.7653 42.2381 48.424C41.8434 48.0826 41.2461 47.912 40.4461 47.912H38.3341V51.8ZM49.8806 52.328V54.92H55.9766V57H47.3046V45.8H55.7686V47.88H49.8806V50.312H55.0806V52.328H49.8806ZM58.0389 45.8V57H60.631V53.88H62.8869C62.9278 53.88 62.9684 53.8798 63.0088 53.8792L65.1589 57H67.9589L65.457 53.4096C65.4643 53.4064 65.4716 53.4033 65.4789 53.4C66.2043 53.08 66.7643 52.6213 67.1589 52.024C67.5536 51.416 67.7509 50.696 67.7509 49.864C67.7509 49.0214 67.5536 48.296 67.1589 47.688C66.7643 47.08 66.2043 46.616 65.4789 46.296C64.7536 45.9653 63.8896 45.8 62.8869 45.8H58.0389ZM60.631 51.816H62.743C63.5429 51.816 64.1403 51.6453 64.5349 51.304C64.9296 50.952 65.127 50.472 65.127 49.864C65.127 49.2454 64.9296 48.7653 64.5349 48.424C64.1403 48.0826 63.5429 47.912 62.743 47.912H60.631V51.816ZM73.3246 45.8L68.3326 57H70.9886L71.9866 54.6H77.1784L78.1726 57H80.8926L75.8846 45.8H73.3246ZM76.3632 52.632L74.5876 48.3456L72.805 52.632H76.3632ZM82.0546 45.8V57H87.1426C88.3586 57 89.4306 56.7707 90.3586 56.312C91.2866 55.8427 92.0119 55.192 92.5346 54.36C93.0572 53.5173 93.3186 52.5306 93.3186 51.4C93.3186 50.2587 93.0572 49.272 92.5346 48.44C92.0119 47.608 91.2866 46.9626 90.3586 46.504C89.4306 46.0347 88.3586 45.8 87.1426 45.8H82.0546ZM87.0146 54.872H84.6466V47.928H87.0146C87.7612 47.928 88.4066 48.072 88.9506 48.36C89.5052 48.6373 89.9319 49.0374 90.2306 49.56C90.5399 50.072 90.6945 50.6853 90.6945 51.4C90.6945 52.104 90.5399 52.7173 90.2306 53.24C89.9319 53.7627 89.5052 54.168 88.9506 54.456C88.4066 54.7333 87.7612 54.872 87.0146 54.872ZM97.4173 45.8H95.2733V57H97.7053V50.4225L100.985 55.816H102.153L105.451 50.2777L105.465 57H107.897L107.865 45.8H105.737L101.613 52.7545L97.4173 45.8ZM113.147 45.8H110.555V57H113.147V45.8ZM117.949 45.8H115.805V57H118.365V50.2021L123.949 57H126.077V45.8H123.517V52.5949L117.949 45.8Z" fill="white"/>
<path d="M92.2289 0C93.2616 0 94.0988 0.837825 94.0988 1.87133V29.5439C94.0988 29.6085 94.0465 29.6608 93.9819 29.6608H91.4389C90.4062 29.6608 89.5691 28.823 89.5691 27.7895V0.116958C89.5691 0.0523641 89.6214 0 89.6859 0H92.2289Z" fill="white"/>
<path d="M21.3176 15.8689C21.9798 14.6229 22.3109 13.2974 22.3109 11.8923C22.3109 10.3547 21.9401 8.26116 21.1984 7.01516C20.4832 5.76917 19.3838 4.78828 17.9004 4.07249C16.4435 3.33019 14.6554 2.95905 12.5363 2.95905H3.11687C3.05232 2.95905 3 3.01141 3 3.076V6.77423C3 6.83882 3.05232 6.89119 3.11687 6.89119H12.5363C15.9534 6.89119 17.662 8.87012 17.662 11.8923C17.662 13.3239 17.2382 14.2034 16.3905 14.9987C15.5428 15.7675 14.2581 16.3859 12.5363 16.3859H7.64659C7.58205 16.3859 7.52973 16.3335 7.52973 16.2689V7.37956C7.52973 7.30633 7.46325 7.25111 7.39132 7.26461L4.52526 7.80242C3.64087 7.96837 3 8.74119 3 9.6417V30.6867C3 30.7608 3.06798 30.8162 3.14049 30.8012L6.03784 30.2027C6.90654 30.0233 7.52973 29.2577 7.52973 28.37V20.6689C7.52973 20.6043 7.58205 20.5519 7.64659 20.5519H12.5363C15.1504 20.5519 16.9034 19.9533 18.3058 19.0176C19.7082 18.082 20.6553 17.1149 21.3176 15.8689Z" fill="white"/>
<path d="M55.2387 11.4414C55.2387 11.5603 55.3996 11.6059 55.4657 11.5072C56.0965 10.5661 56.895 9.82428 57.8612 9.28182C58.9449 8.66205 60.2172 8.34413 61.678 8.32808C61.7425 8.32737 61.7949 8.3798 61.7949 8.4444V12.9028C61.7949 12.9674 61.7426 13.0198 61.678 13.0198H60.6426C58.8678 13.0198 57.5168 13.4705 56.5897 14.3718C55.6891 15.2732 55.2387 16.8373 55.2387 19.0642V30.9476C55.2387 31.0122 55.1864 31.0645 55.1219 31.0645H50.8259C50.7613 31.0645 50.709 31.0122 50.709 30.9476V8.80229C50.709 8.73769 50.7613 8.68533 50.8259 8.68533H55.1219C55.1864 8.68533 55.2387 8.73769 55.2387 8.80229V11.4414Z" fill="white"/>
<path d="M103.033 32C103.098 32 103.15 31.9476 103.15 31.883V4.2105C103.15 3.17699 102.313 2.33917 101.28 2.33917H98.737C98.6725 2.33917 98.6201 2.39153 98.6201 2.45613V30.1287C98.6201 31.1622 99.4573 32 100.49 32H103.033Z" fill="white"/>
<path fill-rule="evenodd" clip-rule="evenodd" d="M128.232 18.9802C128.232 19.7615 128.184 20.471 128.089 21.1086C128.08 21.1654 128.031 21.2071 127.974 21.2071H111.471C111.403 21.2071 111.349 21.2652 111.356 21.333C111.509 23.0243 112.155 24.3874 113.292 25.4223C114.458 26.4827 115.888 27.0129 117.583 27.0129C119.994 27.0129 121.705 26.014 122.716 24.0163C122.736 23.9766 122.777 23.9509 122.822 23.9509H127.475C127.554 23.9509 127.611 24.0288 127.585 24.1041C126.912 26.0499 125.724 27.6557 124.02 28.9217C122.299 30.1942 120.153 30.8304 117.583 30.8304C115.491 30.8304 113.61 30.3665 111.941 29.4386C110.299 28.4842 109.001 27.1587 108.047 25.462C107.12 23.7388 106.657 21.7505 106.657 19.4971C106.657 17.2437 107.107 15.2687 108.007 13.572C108.935 11.8488 110.219 10.5233 111.862 9.59545C113.531 8.66758 115.438 8.20364 117.583 8.20364C119.65 8.20364 121.491 8.65432 123.107 9.55568C124.722 10.457 125.981 11.7295 126.881 13.3732C127.782 14.9904 128.232 16.8593 128.232 18.9802ZM123.385 17.5486C123.45 17.5486 123.503 17.4949 123.501 17.4297C123.449 15.8148 122.854 14.5156 121.716 13.5323C120.55 12.5249 119.107 12.0212 117.385 12.0212C115.822 12.0212 114.484 12.5249 113.372 13.5323C112.288 14.4877 111.632 15.7827 111.402 17.4172C111.393 17.4868 111.447 17.5486 111.517 17.5486H123.385Z" fill="white"/>
<path d="M135.883 30.8304C135.948 30.8304 136 30.7781 136 30.7135V3.04092C136 2.00741 135.163 1.16958 134.13 1.16958H131.587C131.523 1.16958 131.47 1.22195 131.47 1.28654V28.9591C131.47 29.9926 132.307 30.8304 133.34 30.8304H135.883Z" fill="white"/>
<path fill-rule="evenodd" clip-rule="evenodd" d="M35.2514 31.0643C37.6749 31.0643 39.9131 30.2364 41.7206 28.8366C41.7984 28.7764 41.9127 28.8312 41.9127 28.9296V30.9474C41.9127 31.012 41.9651 31.0643 42.0296 31.0643H46.4705C46.5351 31.0643 46.5874 31.012 46.5874 30.9474V8.49136C46.5874 8.42677 46.5351 8.3744 46.4705 8.3744H42.0296C41.9651 8.3744 41.9127 8.42677 41.9127 8.49136V10.5091C41.9127 10.6075 41.7984 10.6623 41.7206 10.6021C39.9131 9.20238 37.6749 8.3744 35.2514 8.3744C29.2488 8.3744 24.3828 13.4537 24.3828 19.7194C24.3828 25.985 29.2488 31.0643 35.2514 31.0643ZM35.4851 26.6199C39.2932 26.6199 42.1465 23.5304 42.1465 19.7194C42.1465 15.9083 39.2932 12.8188 35.4851 12.8188C31.677 12.8188 28.8237 15.9083 28.8237 19.7194C28.8237 23.5304 31.677 26.6199 35.4851 26.6199Z" fill="white"/>
<path fill-rule="evenodd" clip-rule="evenodd" d="M74.0509 31.0643C76.4744 31.0643 78.7126 30.2364 80.5201 28.8366C80.5979 28.7764 80.7123 28.8312 80.7123 28.9296V30.9474C80.7123 31.012 80.7646 31.0643 80.8291 31.0643H85.27C85.3346 31.0643 85.3869 31.012 85.3869 30.9474V8.49136C85.3869 8.42677 85.3346 8.3744 85.27 8.3744H80.8291C80.7646 8.3744 80.7123 8.42677 80.7123 8.49136V10.5091C80.7123 10.6075 80.5979 10.6623 80.5201 10.6021C78.7126 9.20238 76.4744 8.3744 74.0509 8.3744C68.0484 8.3744 63.1823 13.4537 63.1823 19.7194C63.1823 25.985 68.0484 31.0643 74.0509 31.0643ZM74.2846 26.6199C78.0927 26.6199 81.1797 23.5304 81.1797 19.7194C81.1797 15.9083 78.0927 12.8188 74.2846 12.8188C70.4766 12.8188 67.6233 15.9083 67.6233 19.7194C67.6233 23.5304 70.4766 26.6199 74.2846 26.6199Z" fill="white"/>
</svg>
