<svg width="133" height="32" viewBox="0 0 133 32" fill="none" xmlns="http://www.w3.org/2000/svg">
<path d="M89.2289 0C90.2616 0 91.0988 0.837825 91.0988 1.87133V29.5439C91.0988 29.6085 91.0465 29.6608 90.9819 29.6608H88.4389C87.4062 29.6608 86.5691 28.823 86.5691 27.7895V0.116958C86.5691 0.0523641 86.6214 0 86.6859 0H89.2289Z" fill="white"/>
<path d="M18.3176 15.8689C18.9798 14.6229 19.3109 13.2974 19.3109 11.8923C19.3109 10.3547 18.9401 8.26116 18.1984 7.01516C17.4832 5.76917 16.3838 4.78828 14.9004 4.07249C13.4435 3.33019 11.6554 2.95905 9.53627 2.95905H0.116866C0.0523227 2.95905 0 3.01141 0 3.076V6.77423C0 6.83882 0.0523228 6.89119 0.116866 6.89119H9.53627C12.9534 6.89119 14.662 8.87012 14.662 11.8923C14.662 13.3239 14.2382 14.2034 13.3905 14.9987C12.5428 15.7675 11.2581 16.3859 9.53627 16.3859H4.64659C4.58205 16.3859 4.52973 16.3335 4.52973 16.2689V7.37956C4.52973 7.30633 4.46325 7.25111 4.39132 7.26461L1.52526 7.80242C0.640872 7.96837 0 8.74119 0 9.6417V30.6867C0 30.7608 0.0679765 30.8162 0.140489 30.8012L3.03784 30.2027C3.90654 30.0233 4.52973 29.2577 4.52973 28.37V20.6689C4.52973 20.6043 4.58205 20.5519 4.64659 20.5519H9.53627C12.1504 20.5519 13.9034 19.9533 15.3058 19.0176C16.7082 18.082 17.6553 17.1149 18.3176 15.8689Z" fill="white"/>
<path d="M52.2387 11.4414C52.2387 11.5603 52.3996 11.6059 52.4657 11.5072C53.0965 10.5661 53.895 9.82428 54.8612 9.28182C55.945 8.66205 57.2172 8.34413 58.678 8.32808C58.7425 8.32737 58.7949 8.3798 58.7949 8.4444V12.9028C58.7949 12.9674 58.7426 13.0198 58.678 13.0198H57.6426C55.8678 13.0198 54.5168 13.4705 53.5897 14.3718C52.6891 15.2732 52.2387 16.8373 52.2387 19.0642V30.9476C52.2387 31.0121 52.1864 31.0645 52.1219 31.0645H47.8259C47.7613 31.0645 47.709 31.0121 47.709 30.9476V8.80229C47.709 8.73769 47.7613 8.68533 47.8259 8.68533H52.1219C52.1864 8.68533 52.2387 8.73769 52.2387 8.80229V11.4414Z" fill="white"/>
<path d="M100.033 32C100.098 32 100.15 31.9476 100.15 31.883V4.2105C100.15 3.17699 99.3127 2.33917 98.28 2.33917H95.737C95.6725 2.33917 95.6201 2.39153 95.6201 2.45613V30.1287C95.6201 31.1622 96.4573 32 97.49 32H100.033Z" fill="white"/>
<path fill-rule="evenodd" clip-rule="evenodd" d="M125.232 18.9802C125.232 19.7615 125.184 20.471 125.089 21.1086C125.08 21.1654 125.031 21.2071 124.974 21.2071H108.471C108.403 21.2071 108.349 21.2652 108.356 21.333C108.509 23.0243 109.155 24.3874 110.292 25.4223C111.458 26.4827 112.888 27.0129 114.583 27.0129C116.994 27.0129 118.705 26.014 119.716 24.0163C119.736 23.9766 119.777 23.9509 119.822 23.9509H124.475C124.554 23.9509 124.611 24.0288 124.585 24.1041C123.912 26.0499 122.724 27.6557 121.02 28.9217C119.299 30.1942 117.153 30.8304 114.583 30.8304C112.491 30.8304 110.61 30.3665 108.941 29.4386C107.299 28.4842 106.001 27.1587 105.047 25.462C104.12 23.7388 103.657 21.7505 103.657 19.4971C103.657 17.2437 104.107 15.2687 105.007 13.572C105.935 11.8488 107.219 10.5233 108.862 9.59545C110.531 8.66758 112.438 8.20364 114.583 8.20364C116.65 8.20364 118.491 8.65432 120.107 9.55568C121.722 10.457 122.981 11.7295 123.881 13.3732C124.782 14.9903 125.232 16.8593 125.232 18.9802ZM120.385 17.5486C120.45 17.5486 120.503 17.4949 120.501 17.4297C120.449 15.8148 119.854 14.5156 118.716 13.5323C117.55 12.5249 116.107 12.0212 114.385 12.0212C112.822 12.0212 111.484 12.5249 110.372 13.5323C109.288 14.4877 108.632 15.7826 108.402 17.4172C108.393 17.4868 108.447 17.5486 108.517 17.5486H120.385Z" fill="white"/>
<path d="M132.883 30.8304C132.948 30.8304 133 30.7781 133 30.7135V3.04092C133 2.00741 132.163 1.16958 131.13 1.16958H128.587C128.523 1.16958 128.47 1.22195 128.47 1.28654V28.9591C128.47 29.9926 129.307 30.8304 130.34 30.8304H132.883Z" fill="white"/>
<path fill-rule="evenodd" clip-rule="evenodd" d="M32.2514 31.0643C34.6749 31.0643 36.9131 30.2364 38.7206 28.8366C38.7984 28.7764 38.9127 28.8312 38.9127 28.9296V30.9474C38.9127 31.012 38.9651 31.0643 39.0296 31.0643H43.4705C43.5351 31.0643 43.5874 31.012 43.5874 30.9474V8.49136C43.5874 8.42677 43.5351 8.3744 43.4705 8.3744H39.0296C38.9651 8.3744 38.9127 8.42677 38.9127 8.49136V10.5091C38.9127 10.6075 38.7984 10.6623 38.7206 10.6021C36.9131 9.20238 34.6749 8.3744 32.2514 8.3744C26.2488 8.3744 21.3828 13.4537 21.3828 19.7194C21.3828 25.985 26.2488 31.0643 32.2514 31.0643ZM32.4851 26.6199C36.2932 26.6199 39.1465 23.5304 39.1465 19.7194C39.1465 15.9083 36.2932 12.8188 32.4851 12.8188C28.677 12.8188 25.8237 15.9083 25.8237 19.7194C25.8237 23.5304 28.677 26.6199 32.4851 26.6199Z" fill="white"/>
<path fill-rule="evenodd" clip-rule="evenodd" d="M71.0509 31.0643C73.4744 31.0643 75.7126 30.2364 77.5201 28.8366C77.5979 28.7764 77.7122 28.8312 77.7122 28.9296V30.9474C77.7122 31.012 77.7646 31.0643 77.8291 31.0643H82.27C82.3346 31.0643 82.3869 31.012 82.3869 30.9474V8.49136C82.3869 8.42677 82.3346 8.3744 82.27 8.3744H77.8291C77.7646 8.3744 77.7122 8.42677 77.7122 8.49136V10.5091C77.7122 10.6075 77.5979 10.6623 77.5201 10.6021C75.7126 9.20238 73.4744 8.3744 71.0509 8.3744C65.0484 8.3744 60.1824 13.4537 60.1824 19.7194C60.1824 25.985 65.0484 31.0643 71.0509 31.0643ZM71.2846 26.6199C75.0927 26.6199 78.1797 23.5304 78.1797 19.7194C78.1797 15.9083 75.0927 12.8188 71.2846 12.8188C67.4766 12.8188 64.6233 15.9083 64.6233 19.7194C64.6233 23.5304 67.4766 26.6199 71.2846 26.6199Z" fill="white"/>
</svg>
