<svg width="22" height="25" viewBox="0 0 22 25" fill="none" xmlns="http://www.w3.org/2000/svg">
<path fill-rule="evenodd" clip-rule="evenodd" d="M11.0055 0C11.613 0 12.1055 0.5087 12.1055 1.13621V12.4983C12.1055 13.1259 11.613 13.6346 11.0055 13.6346C10.398 13.6346 9.9055 13.1259 9.9055 12.4983V1.13621C9.9055 0.5087 10.398 0 11.0055 0ZM4.77619 5.60468C5.20584 6.04833 5.20595 6.76774 4.77645 7.21153C3.54603 8.48287 2.7082 10.1025 2.36888 11.8657C2.02957 13.6288 2.204 15.4563 2.87014 17.117C3.53627 18.7778 4.66419 20.1972 6.11128 21.1959C7.55837 22.1945 9.25965 22.7276 11 22.7276C12.7404 22.7276 14.4416 22.1945 15.8887 21.1959C17.3358 20.1972 18.4637 18.7778 19.1299 17.117C19.796 15.4563 19.9704 13.6288 19.6311 11.8657C19.2918 10.1025 18.454 8.48287 17.2236 7.21153C16.794 6.76774 16.7942 6.04833 17.2238 5.60468C17.6535 5.16104 18.3499 5.16116 18.7794 5.60495C20.3175 7.19412 21.3647 9.21866 21.7889 11.4226C22.213 13.6265 21.995 15.9109 21.1623 17.9868C20.3297 20.0628 18.9198 21.8371 17.1109 23.0854C15.302 24.3337 13.1754 25 11 25C8.82456 25 6.69797 24.3337 4.8891 23.0854C3.08024 21.8371 1.67034 20.0628 0.837673 17.9868C0.00500425 15.9109 -0.213042 13.6265 0.211104 11.4226C0.63525 9.21866 1.68254 7.19412 3.22056 5.60495C3.65007 5.16116 4.34655 5.16104 4.77619 5.60468Z" fill="white"/>
</svg>
