<svg width="23" height="22" viewBox="0 0 23 22" fill="none" xmlns="http://www.w3.org/2000/svg">
<path fill-rule="evenodd" clip-rule="evenodd" d="M1.31597 6.87814C2.93341 2.85148 6.85574 0 11.4487 0C15.4991 0 19.0292 2.21872 20.9146 5.50323C21.0602 5.75686 21.0708 6.05065 20.9689 6.30208H21.16V2.17708C21.16 1.67082 21.5719 1.26042 22.08 1.26042C22.5881 1.26042 23 1.67082 23 2.17708V7.21875C23 7.72501 22.5881 8.13542 22.08 8.13542H17.077C16.5689 8.13542 16.157 7.72501 16.157 7.21875C16.157 6.71249 16.5689 6.30208 17.077 6.30208H19.2524C17.6627 3.62053 14.7599 1.83333 11.4487 1.83333C7.64324 1.83333 4.37549 4.19537 3.02423 7.55936C2.83543 8.02937 2.29998 8.2579 1.82825 8.06979C1.35653 7.88168 1.12717 7.34816 1.31597 6.87814ZM21.1717 13.9302C21.6435 14.1183 21.8728 14.6518 21.684 15.1219C20.0666 19.1485 16.1443 22 11.5513 22C7.50087 22 3.97078 19.7813 2.08538 16.4968C1.93979 16.2431 1.92921 15.9493 2.03108 15.6979H1.84V19.8229C1.84 20.3292 1.4281 20.7396 0.92 20.7396C0.411898 20.7396 0 20.3292 0 19.8229V14.7813C0 14.275 0.411898 13.8646 0.92 13.8646H5.92296C6.43107 13.8646 6.84296 14.275 6.84296 14.7813C6.84296 15.2875 6.43107 15.6979 5.92296 15.6979H3.74756C5.33726 18.3795 8.24015 20.1667 11.5513 20.1667C15.3568 20.1667 18.6245 17.8046 19.9758 14.4406C20.1646 13.9706 20.7 13.7421 21.1717 13.9302Z" fill="white"/>
</svg>
